# xmcd
#
# Track frame offsets: 
#        150
#        20402
#        34581
#        52056
#        68119
#        84043
#        102115
#        126262
#        138160
#        151177
#        166543
#        174776
#        192810
#        204224
#        222680
#        236618
#        258565
#        275762
#        288842
#        307449
#
# Disc length: 4261 seconds
#
# Revision: 0
# Processed by: cddbd v1.5.2PL0 Copyright (c) Steve Scherf et al.
# Submitted via: ExactAudioCopy v1.0b1
#
DISCID=1410a314
DTITLE=Matuška Waldemar - Singly 2
DYEAR=2012
DGENRE=Country
TTITLE0=Žít, jen žít
TTITLE1=Už nejdu dál
TTITLE2=Pláňka
TTITLE3=Má cesta
TTITLE4=Vítr mi o tom hrál
TTITLE5=Má malá zem
TTITLE6=Ty a já
TTITLE7=Den bičem prásk
TTITLE8=Do věží
TTITLE9=Kráčím vstříc
TTITLE10=Když máš v chalupě orchestrion
TTITLE11=Loutna
TTITLE12=Žít je umět stárnout
TTITLE13=Eldorádo
TTITLE14=Když jdou na mužskýho léta
TTITLE15=Matka měst
TTITLE16=To prý je Laura
TTITLE17=Serenáda pro Marii
TTITLE18=Svítá
TTITLE19=Já si vsadil na pár tónů
EXTD=
EXTT0=
EXTT1=
EXTT2=
EXTT3=
EXTT4=
EXTT5=
EXTT6=
EXTT7=
EXTT8=
EXTT9=
EXTT10=
EXTT11=
EXTT12=
EXTT13=
EXTT14=
EXTT15=
EXTT16=
EXTT17=
EXTT18=
EXTT19=
PLAYORDER=
